<svg xmlns="http://www.w3.org/2000/svg" version="1.1" xmlns:xlink="http://www.w3.org/1999/xlink" xmlns:svgjs="http://svgjs.dev/svgjs" width="1440" height="560" preserveAspectRatio="none" viewBox="0 0 1440 560"><g mask="url(&quot;#SvgjsMask1659&quot;)" fill="none"><rect width="1440" height="560" x="0" y="0" fill="rgba(255, 255, 255, 1)"></rect><path d="M-48.42 505.6L-48.42 505.6" stroke="rgba(172, 215, 251, 0.5)" stroke-width="1.5"></path><path d="M-48.42 505.6L45.59 411.72" stroke="rgba(172, 215, 251, 0.5)" stroke-width="1.5"></path><path d="M-48.42 505.6L85.29 497.39" stroke="rgba(172, 215, 251, 0.5)" stroke-width="1.5"></path><path d="M-48.42 505.6L39.52 674.81" stroke="rgba(172, 215, 251, 0.5)" stroke-width="1.5"></path><path d="M-81.9 706.73L-81.9 706.73" stroke="rgba(172, 215, 251, 0.5)" stroke-width="1.5"></path><path d="M-81.9 706.73L39.52 674.81" stroke="rgba(172, 215, 251, 0.5)" stroke-width="1.5"></path><path d="M-81.9 706.73L-48.42 505.6" stroke="rgba(172, 215, 251, 0.5)" stroke-width="1.5"></path><path d="M-81.9 706.73L85.29 497.39" stroke="rgba(172, 215, 251, 0.5)" stroke-width="1.5"></path><path d="M45.59 411.72L45.59 411.72" stroke="rgba(172, 215, 251, 0.5)" stroke-width="1.5"></path><path d="M45.59 411.72L85.29 497.39" stroke="rgba(172, 215, 251, 0.5)" stroke-width="1.5"></path><path d="M45.59 411.72L236.13 367.09" stroke="rgba(172, 215, 251, 0.5)" stroke-width="1.5"></path><path d="M45.59 411.72L206.38 540.54" stroke="rgba(172, 215, 251, 0.5)" stroke-width="1.5"></path><path d="M85.29 497.39L85.29 497.39" stroke="rgba(172, 215, 251, 0.5)" stroke-width="1.5"></path><path d="M85.29 497.39L206.38 540.54" stroke="rgba(172, 215, 251, 0.5)" stroke-width="1.5"></path><path d="M85.29 497.39L39.52 674.81" stroke="rgba(172, 215, 251, 0.5)" stroke-width="1.5"></path><path d="M85.29 497.39L236.13 367.09" stroke="rgba(172, 215, 251, 0.5)" stroke-width="1.5"></path><path d="M39.52 674.81L39.52 674.81" stroke="rgba(172, 215, 251, 0.5)" stroke-width="1.5"></path><path d="M236.13 367.09L236.13 367.09" stroke="rgba(172, 215, 251, 0.5)" stroke-width="1.5"></path><path d="M236.13 367.09L206.38 540.54" stroke="rgba(172, 215, 251, 0.5)" stroke-width="1.5"></path><path d="M206.38 540.54L206.38 540.54" stroke="rgba(172, 215, 251, 0.5)" stroke-width="1.5"></path><path d="M206.38 540.54L259.05 659.1" stroke="rgba(172, 215, 251, 0.5)" stroke-width="1.5"></path><path d="M259.05 659.1L259.05 659.1" stroke="rgba(172, 215, 251, 0.5)" stroke-width="1.5"></path><path d="M259.05 659.1L364.54 684.37" stroke="rgba(172, 215, 251, 0.5)" stroke-width="1.5"></path><path d="M259.05 659.1L39.52 674.81" stroke="rgba(172, 215, 251, 0.5)" stroke-width="1.5"></path><path d="M259.05 659.1L85.29 497.39" stroke="rgba(172, 215, 251, 0.5)" stroke-width="1.5"></path><path d="M259.05 659.1L503.07 693.19" stroke="rgba(172, 215, 251, 0.5)" stroke-width="1.5"></path><path d="M364.54 684.37L364.54 684.37" stroke="rgba(172, 215, 251, 0.5)" stroke-width="1.5"></path><path d="M364.54 684.37L503.07 693.19" stroke="rgba(172, 215, 251, 0.5)" stroke-width="1.5"></path><path d="M364.54 684.37L206.38 540.54" stroke="rgba(172, 215, 251, 0.5)" stroke-width="1.5"></path><path d="M519.36 391.49L519.36 391.49" stroke="rgba(172, 215, 251, 0.5)" stroke-width="1.5"></path><path d="M519.36 391.49L683.65 388.63" stroke="rgba(172, 215, 251, 0.5)" stroke-width="1.5"></path><path d="M519.36 391.49L656.63 534.92" stroke="rgba(172, 215, 251, 0.5)" stroke-width="1.5"></path><path d="M519.36 391.49L696.83 220.5" stroke="rgba(172, 215, 251, 0.5)" stroke-width="1.5"></path><path d="M519.36 391.49L236.13 367.09" stroke="rgba(172, 215, 251, 0.5)" stroke-width="1.5"></path><path d="M519.36 391.49L792.44 494.6" stroke="rgba(172, 215, 251, 0.5)" stroke-width="1.5"></path><path d="M503.07 693.19L503.07 693.19" stroke="rgba(172, 215, 251, 0.5)" stroke-width="1.5"></path><path d="M503.07 693.19L652.53 653.22" stroke="rgba(172, 215, 251, 0.5)" stroke-width="1.5"></path><path d="M503.07 693.19L656.63 534.92" stroke="rgba(172, 215, 251, 0.5)" stroke-width="1.5"></path><path d="M696.83 220.5L696.83 220.5" stroke="rgba(172, 215, 251, 0.5)" stroke-width="1.5"></path><path d="M696.83 220.5L683.65 388.63" stroke="rgba(172, 215, 251, 0.5)" stroke-width="1.5"></path><path d="M696.83 220.5L857.81 363.44" stroke="rgba(172, 215, 251, 0.5)" stroke-width="1.5"></path><path d="M696.83 220.5L978.65 257.66" stroke="rgba(172, 215, 251, 0.5)" stroke-width="1.5"></path><path d="M696.83 220.5L792.44 494.6" stroke="rgba(172, 215, 251, 0.5)" stroke-width="1.5"></path><path d="M696.83 220.5L963.2 52.77" stroke="rgba(172, 215, 251, 0.5)" stroke-width="1.5"></path><path d="M683.65 388.63L683.65 388.63" stroke="rgba(172, 215, 251, 0.5)" stroke-width="1.5"></path><path d="M683.65 388.63L656.63 534.92" stroke="rgba(172, 215, 251, 0.5)" stroke-width="1.5"></path><path d="M683.65 388.63L792.44 494.6" stroke="rgba(172, 215, 251, 0.5)" stroke-width="1.5"></path><path d="M683.65 388.63L857.81 363.44" stroke="rgba(172, 215, 251, 0.5)" stroke-width="1.5"></path><path d="M683.65 388.63L652.53 653.22" stroke="rgba(172, 215, 251, 0.5)" stroke-width="1.5"></path><path d="M656.63 534.92L656.63 534.92" stroke="rgba(172, 215, 251, 0.5)" stroke-width="1.5"></path><path d="M656.63 534.92L652.53 653.22" stroke="rgba(172, 215, 251, 0.5)" stroke-width="1.5"></path><path d="M656.63 534.92L792.44 494.6" stroke="rgba(172, 215, 251, 0.5)" stroke-width="1.5"></path><path d="M652.53 653.22L652.53 653.22" stroke="rgba(172, 215, 251, 0.5)" stroke-width="1.5"></path><path d="M652.53 653.22L815.63 645.53" stroke="rgba(172, 215, 251, 0.5)" stroke-width="1.5"></path><path d="M652.53 653.22L792.44 494.6" stroke="rgba(172, 215, 251, 0.5)" stroke-width="1.5"></path><path d="M652.53 653.22L364.54 684.37" stroke="rgba(172, 215, 251, 0.5)" stroke-width="1.5"></path><path d="M857.81 363.44L857.81 363.44" stroke="rgba(172, 215, 251, 0.5)" stroke-width="1.5"></path><path d="M857.81 363.44L962.95 394.43" stroke="rgba(172, 215, 251, 0.5)" stroke-width="1.5"></path><path d="M857.81 363.44L792.44 494.6" stroke="rgba(172, 215, 251, 0.5)" stroke-width="1.5"></path><path d="M857.81 363.44L978.65 257.66" stroke="rgba(172, 215, 251, 0.5)" stroke-width="1.5"></path><path d="M857.81 363.44L979.42 552.07" stroke="rgba(172, 215, 251, 0.5)" stroke-width="1.5"></path><path d="M792.44 494.6L792.44 494.6" stroke="rgba(172, 215, 251, 0.5)" stroke-width="1.5"></path><path d="M792.44 494.6L815.63 645.53" stroke="rgba(172, 215, 251, 0.5)" stroke-width="1.5"></path><path d="M815.63 645.53L815.63 645.53" stroke="rgba(172, 215, 251, 0.5)" stroke-width="1.5"></path><path d="M815.63 645.53L963.28 655.23" stroke="rgba(172, 215, 251, 0.5)" stroke-width="1.5"></path><path d="M992.91 -102.5L992.91 -102.5" stroke="rgba(172, 215, 251, 0.5)" stroke-width="1.5"></path><path d="M992.91 -102.5L963.2 52.77" stroke="rgba(172, 215, 251, 0.5)" stroke-width="1.5"></path><path d="M992.91 -102.5L1149.04 -55.02" stroke="rgba(172, 215, 251, 0.5)" stroke-width="1.5"></path><path d="M992.91 -102.5L1128.55 109.98" stroke="rgba(172, 215, 251, 0.5)" stroke-width="1.5"></path><path d="M992.91 -102.5L1297.68 -87.03" stroke="rgba(172, 215, 251, 0.5)" stroke-width="1.5"></path><path d="M963.2 52.77L963.2 52.77" stroke="rgba(172, 215, 251, 0.5)" stroke-width="1.5"></path><path d="M963.2 52.77L1128.55 109.98" stroke="rgba(172, 215, 251, 0.5)" stroke-width="1.5"></path><path d="M963.2 52.77L978.65 257.66" stroke="rgba(172, 215, 251, 0.5)" stroke-width="1.5"></path><path d="M978.65 257.66L978.65 257.66" stroke="rgba(172, 215, 251, 0.5)" stroke-width="1.5"></path><path d="M978.65 257.66L962.95 394.43" stroke="rgba(172, 215, 251, 0.5)" stroke-width="1.5"></path><path d="M978.65 257.66L1147.5 218.18" stroke="rgba(172, 215, 251, 0.5)" stroke-width="1.5"></path><path d="M978.65 257.66L1139.58 338.13" stroke="rgba(172, 215, 251, 0.5)" stroke-width="1.5"></path><path d="M978.65 257.66L1128.55 109.98" stroke="rgba(172, 215, 251, 0.5)" stroke-width="1.5"></path><path d="M962.95 394.43L962.95 394.43" stroke="rgba(172, 215, 251, 0.5)" stroke-width="1.5"></path><path d="M962.95 394.43L979.42 552.07" stroke="rgba(172, 215, 251, 0.5)" stroke-width="1.5"></path><path d="M962.95 394.43L1139.58 338.13" stroke="rgba(172, 215, 251, 0.5)" stroke-width="1.5"></path><path d="M979.42 552.07L979.42 552.07" stroke="rgba(172, 215, 251, 0.5)" stroke-width="1.5"></path><path d="M979.42 552.07L963.28 655.23" stroke="rgba(172, 215, 251, 0.5)" stroke-width="1.5"></path><path d="M979.42 552.07L1101.37 539.32" stroke="rgba(172, 215, 251, 0.5)" stroke-width="1.5"></path><path d="M979.42 552.07L815.63 645.53" stroke="rgba(172, 215, 251, 0.5)" stroke-width="1.5"></path><path d="M979.42 552.07L792.44 494.6" stroke="rgba(172, 215, 251, 0.5)" stroke-width="1.5"></path><path d="M963.28 655.23L963.28 655.23" stroke="rgba(172, 215, 251, 0.5)" stroke-width="1.5"></path><path d="M963.28 655.23L1101.37 539.32" stroke="rgba(172, 215, 251, 0.5)" stroke-width="1.5"></path><path d="M963.28 655.23L1150.4 675.09" stroke="rgba(172, 215, 251, 0.5)" stroke-width="1.5"></path><path d="M963.28 655.23L792.44 494.6" stroke="rgba(172, 215, 251, 0.5)" stroke-width="1.5"></path><path d="M1149.04 -55.02L1149.04 -55.02" stroke="rgba(172, 215, 251, 0.5)" stroke-width="1.5"></path><path d="M1149.04 -55.02L1297.68 -87.03" stroke="rgba(172, 215, 251, 0.5)" stroke-width="1.5"></path><path d="M1149.04 -55.02L1128.55 109.98" stroke="rgba(172, 215, 251, 0.5)" stroke-width="1.5"></path><path d="M1149.04 -55.02L1283.96 63.73" stroke="rgba(172, 215, 251, 0.5)" stroke-width="1.5"></path><path d="M1149.04 -55.02L963.2 52.77" stroke="rgba(172, 215, 251, 0.5)" stroke-width="1.5"></path><path d="M1128.55 109.98L1128.55 109.98" stroke="rgba(172, 215, 251, 0.5)" stroke-width="1.5"></path><path d="M1128.55 109.98L1147.5 218.18" stroke="rgba(172, 215, 251, 0.5)" stroke-width="1.5"></path><path d="M1128.55 109.98L1283.96 63.73" stroke="rgba(172, 215, 251, 0.5)" stroke-width="1.5"></path><path d="M1147.5 218.18L1147.5 218.18" stroke="rgba(172, 215, 251, 0.5)" stroke-width="1.5"></path><path d="M1147.5 218.18L1139.58 338.13" stroke="rgba(172, 215, 251, 0.5)" stroke-width="1.5"></path><path d="M1139.58 338.13L1139.58 338.13" stroke="rgba(172, 215, 251, 0.5)" stroke-width="1.5"></path><path d="M1101.37 539.32L1101.37 539.32" stroke="rgba(172, 215, 251, 0.5)" stroke-width="1.5"></path><path d="M1101.37 539.32L1150.4 675.09" stroke="rgba(172, 215, 251, 0.5)" stroke-width="1.5"></path><path d="M1101.37 539.32L962.95 394.43" stroke="rgba(172, 215, 251, 0.5)" stroke-width="1.5"></path><path d="M1150.4 675.09L1150.4 675.09" stroke="rgba(172, 215, 251, 0.5)" stroke-width="1.5"></path><path d="M1150.4 675.09L1243.57 685.27" stroke="rgba(172, 215, 251, 0.5)" stroke-width="1.5"></path><path d="M1150.4 675.09L979.42 552.07" stroke="rgba(172, 215, 251, 0.5)" stroke-width="1.5"></path><path d="M1150.4 675.09L1401.36 546.94" stroke="rgba(172, 215, 251, 0.5)" stroke-width="1.5"></path><path d="M1297.68 -87.03L1297.68 -87.03" stroke="rgba(172, 215, 251, 0.5)" stroke-width="1.5"></path><path d="M1297.68 -87.03L1400.8 -96.66" stroke="rgba(172, 215, 251, 0.5)" stroke-width="1.5"></path><path d="M1297.68 -87.03L1283.96 63.73" stroke="rgba(172, 215, 251, 0.5)" stroke-width="1.5"></path><path d="M1297.68 -87.03L1422.68 92.39" stroke="rgba(172, 215, 251, 0.5)" stroke-width="1.5"></path><path d="M1297.68 -87.03L1128.55 109.98" stroke="rgba(172, 215, 251, 0.5)" stroke-width="1.5"></path><path d="M1283.96 63.73L1283.96 63.73" stroke="rgba(172, 215, 251, 0.5)" stroke-width="1.5"></path><path d="M1283.96 63.73L1422.68 92.39" stroke="rgba(172, 215, 251, 0.5)" stroke-width="1.5"></path><path d="M1308.42 224.49L1308.42 224.49" stroke="rgba(172, 215, 251, 0.5)" stroke-width="1.5"></path><path d="M1308.42 224.49L1411.69 228.05" stroke="rgba(172, 215, 251, 0.5)" stroke-width="1.5"></path><path d="M1308.42 224.49L1147.5 218.18" stroke="rgba(172, 215, 251, 0.5)" stroke-width="1.5"></path><path d="M1308.42 224.49L1283.96 63.73" stroke="rgba(172, 215, 251, 0.5)" stroke-width="1.5"></path><path d="M1308.42 224.49L1422.68 92.39" stroke="rgba(172, 215, 251, 0.5)" stroke-width="1.5"></path><path d="M1280.6 402.61L1280.6 402.61" stroke="rgba(172, 215, 251, 0.5)" stroke-width="1.5"></path><path d="M1280.6 402.61L1139.58 338.13" stroke="rgba(172, 215, 251, 0.5)" stroke-width="1.5"></path><path d="M1280.6 402.61L1308.42 224.49" stroke="rgba(172, 215, 251, 0.5)" stroke-width="1.5"></path><path d="M1280.6 402.61L1461.58 356.24" stroke="rgba(172, 215, 251, 0.5)" stroke-width="1.5"></path><path d="M1243.57 685.27L1243.57 685.27" stroke="rgba(172, 215, 251, 0.5)" stroke-width="1.5"></path><path d="M1243.57 685.27L1101.37 539.32" stroke="rgba(172, 215, 251, 0.5)" stroke-width="1.5"></path><path d="M1243.57 685.27L1401.36 546.94" stroke="rgba(172, 215, 251, 0.5)" stroke-width="1.5"></path><path d="M1400.8 -96.66L1400.8 -96.66" stroke="rgba(172, 215, 251, 0.5)" stroke-width="1.5"></path><path d="M1400.8 -96.66L1422.68 92.39" stroke="rgba(172, 215, 251, 0.5)" stroke-width="1.5"></path><path d="M1422.68 92.39L1422.68 92.39" stroke="rgba(172, 215, 251, 0.5)" stroke-width="1.5"></path><path d="M1422.68 92.39L1411.69 228.05" stroke="rgba(172, 215, 251, 0.5)" stroke-width="1.5"></path><path d="M1411.69 228.05L1411.69 228.05" stroke="rgba(172, 215, 251, 0.5)" stroke-width="1.5"></path><path d="M1411.69 228.05L1461.58 356.24" stroke="rgba(172, 215, 251, 0.5)" stroke-width="1.5"></path><path d="M1411.69 228.05L1595.1 220.24" stroke="rgba(172, 215, 251, 0.5)" stroke-width="1.5"></path><path d="M1411.69 228.05L1283.96 63.73" stroke="rgba(172, 215, 251, 0.5)" stroke-width="1.5"></path><path d="M1411.69 228.05L1280.6 402.61" stroke="rgba(172, 215, 251, 0.5)" stroke-width="1.5"></path><path d="M1461.58 356.24L1461.58 356.24" stroke="rgba(172, 215, 251, 0.5)" stroke-width="1.5"></path><path d="M1461.58 356.24L1595.1 220.24" stroke="rgba(172, 215, 251, 0.5)" stroke-width="1.5"></path><path d="M1401.36 546.94L1401.36 546.94" stroke="rgba(172, 215, 251, 0.5)" stroke-width="1.5"></path><path d="M1401.36 546.94L1461.9 704.41" stroke="rgba(172, 215, 251, 0.5)" stroke-width="1.5"></path><path d="M1401.36 546.94L1280.6 402.61" stroke="rgba(172, 215, 251, 0.5)" stroke-width="1.5"></path><path d="M1461.9 704.41L1461.9 704.41" stroke="rgba(172, 215, 251, 0.5)" stroke-width="1.5"></path><path d="M1461.9 704.41L1609.64 656.5" stroke="rgba(172, 215, 251, 0.5)" stroke-width="1.5"></path><path d="M1461.9 704.41L1243.57 685.27" stroke="rgba(172, 215, 251, 0.5)" stroke-width="1.5"></path><path d="M1461.9 704.41L1610.85 498.03" stroke="rgba(172, 215, 251, 0.5)" stroke-width="1.5"></path><path d="M1603.59 -107.39L1603.59 -107.39" stroke="rgba(172, 215, 251, 0.5)" stroke-width="1.5"></path><path d="M1603.59 -107.39L1400.8 -96.66" stroke="rgba(172, 215, 251, 0.5)" stroke-width="1.5"></path><path d="M1603.59 -107.39L1422.68 92.39" stroke="rgba(172, 215, 251, 0.5)" stroke-width="1.5"></path><path d="M1603.59 -107.39L1297.68 -87.03" stroke="rgba(172, 215, 251, 0.5)" stroke-width="1.5"></path><path d="M1603.59 -107.39L1595.1 220.24" stroke="rgba(172, 215, 251, 0.5)" stroke-width="1.5"></path><path d="M1595.1 220.24L1595.1 220.24" stroke="rgba(172, 215, 251, 0.5)" stroke-width="1.5"></path><path d="M1595.1 220.24L1422.68 92.39" stroke="rgba(172, 215, 251, 0.5)" stroke-width="1.5"></path><path d="M1595.1 220.24L1610.85 498.03" stroke="rgba(172, 215, 251, 0.5)" stroke-width="1.5"></path><path d="M1595.1 220.24L1308.42 224.49" stroke="rgba(172, 215, 251, 0.5)" stroke-width="1.5"></path><path d="M1610.85 498.03L1610.85 498.03" stroke="rgba(172, 215, 251, 0.5)" stroke-width="1.5"></path><path d="M1610.85 498.03L1609.64 656.5" stroke="rgba(172, 215, 251, 0.5)" stroke-width="1.5"></path><path d="M1610.85 498.03L1461.58 356.24" stroke="rgba(172, 215, 251, 0.5)" stroke-width="1.5"></path><path d="M1610.85 498.03L1401.36 546.94" stroke="rgba(172, 215, 251, 0.5)" stroke-width="1.5"></path><path d="M1610.85 498.03L1411.69 228.05" stroke="rgba(172, 215, 251, 0.5)" stroke-width="1.5"></path><path d="M1609.64 656.5L1609.64 656.5" stroke="rgba(172, 215, 251, 0.5)" stroke-width="1.5"></path><circle r="5" cx="-48.42" cy="505.6" fill="rgba(172, 215, 251, 0.5)"></circle><circle r="5" cx="-81.9" cy="706.73" fill="rgba(172, 215, 251, 0.5)"></circle><circle r="5" cx="45.59" cy="411.72" fill="rgba(172, 215, 251, 0.5)"></circle><circle r="5" cx="85.29" cy="497.39" fill="rgba(172, 215, 251, 0.5)"></circle><circle r="5" cx="39.52" cy="674.81" fill="rgba(172, 215, 251, 0.5)"></circle><circle r="5" cx="236.13" cy="367.09" fill="rgba(172, 215, 251, 0.5)"></circle><circle r="5" cx="206.38" cy="540.54" fill="rgba(172, 215, 251, 0.5)"></circle><circle r="5" cx="259.05" cy="659.1" fill="rgba(172, 215, 251, 0.5)"></circle><circle r="5" cx="364.54" cy="684.37" fill="rgba(172, 215, 251, 0.5)"></circle><circle r="5" cx="519.36" cy="391.49" fill="rgba(172, 215, 251, 0.5)"></circle><circle r="5" cx="503.07" cy="693.19" fill="rgba(172, 215, 251, 0.5)"></circle><circle r="5" cx="696.83" cy="220.5" fill="rgba(172, 215, 251, 0.5)"></circle><circle r="5" cx="683.65" cy="388.63" fill="rgba(172, 215, 251, 0.5)"></circle><circle r="5" cx="656.63" cy="534.92" fill="rgba(172, 215, 251, 0.5)"></circle><circle r="5" cx="652.53" cy="653.22" fill="rgba(172, 215, 251, 0.5)"></circle><circle r="5" cx="857.81" cy="363.44" fill="rgba(172, 215, 251, 0.5)"></circle><circle r="5" cx="792.44" cy="494.6" fill="rgba(172, 215, 251, 0.5)"></circle><circle r="5" cx="815.63" cy="645.53" fill="rgba(172, 215, 251, 0.5)"></circle><circle r="5" cx="992.91" cy="-102.5" fill="rgba(172, 215, 251, 0.5)"></circle><circle r="5" cx="963.2" cy="52.77" fill="rgba(172, 215, 251, 0.5)"></circle><circle r="5" cx="978.65" cy="257.66" fill="rgba(172, 215, 251, 0.5)"></circle><circle r="5" cx="962.95" cy="394.43" fill="rgba(172, 215, 251, 0.5)"></circle><circle r="5" cx="979.42" cy="552.07" fill="rgba(172, 215, 251, 0.5)"></circle><circle r="5" cx="963.28" cy="655.23" fill="rgba(172, 215, 251, 0.5)"></circle><circle r="5" cx="1149.04" cy="-55.02" fill="rgba(172, 215, 251, 0.5)"></circle><circle r="5" cx="1128.55" cy="109.98" fill="rgba(172, 215, 251, 0.5)"></circle><circle r="5" cx="1147.5" cy="218.18" fill="rgba(172, 215, 251, 0.5)"></circle><circle r="5" cx="1139.58" cy="338.13" fill="rgba(172, 215, 251, 0.5)"></circle><circle r="5" cx="1101.37" cy="539.32" fill="rgba(172, 215, 251, 0.5)"></circle><circle r="5" cx="1150.4" cy="675.09" fill="rgba(172, 215, 251, 0.5)"></circle><circle r="5" cx="1297.68" cy="-87.03" fill="rgba(172, 215, 251, 0.5)"></circle><circle r="5" cx="1283.96" cy="63.73" fill="rgba(172, 215, 251, 0.5)"></circle><circle r="5" cx="1308.42" cy="224.49" fill="rgba(172, 215, 251, 0.5)"></circle><circle r="5" cx="1280.6" cy="402.61" fill="rgba(172, 215, 251, 0.5)"></circle><circle r="5" cx="1243.57" cy="685.27" fill="rgba(172, 215, 251, 0.5)"></circle><circle r="5" cx="1400.8" cy="-96.66" fill="rgba(172, 215, 251, 0.5)"></circle><circle r="5" cx="1422.68" cy="92.39" fill="rgba(172, 215, 251, 0.5)"></circle><circle r="5" cx="1411.69" cy="228.05" fill="rgba(172, 215, 251, 0.5)"></circle><circle r="5" cx="1461.58" cy="356.24" fill="rgba(172, 215, 251, 0.5)"></circle><circle r="5" cx="1401.36" cy="546.94" fill="rgba(172, 215, 251, 0.5)"></circle><circle r="5" cx="1461.9" cy="704.41" fill="rgba(172, 215, 251, 0.5)"></circle><circle r="5" cx="1603.59" cy="-107.39" fill="rgba(172, 215, 251, 0.5)"></circle><circle r="5" cx="1595.1" cy="220.24" fill="rgba(172, 215, 251, 0.5)"></circle><circle r="5" cx="1610.85" cy="498.03" fill="rgba(172, 215, 251, 0.5)"></circle><circle r="5" cx="1609.64" cy="656.5" fill="rgba(172, 215, 251, 0.5)"></circle><path d="M513.23 546.52L513.23 546.52" stroke="hsla(165.60000000000002, 81.1%, 81.6%, 0.5)" stroke-width="1.5"></path><path d="M513.23 546.52L411.31 524.2" stroke="hsla(165.60000000000002, 81.1%, 81.6%, 0.5)" stroke-width="1.5"></path><path d="M513.23 546.52L548.5 668.92" stroke="hsla(165.60000000000002, 81.1%, 81.6%, 0.5)" stroke-width="1.5"></path><path d="M513.23 546.52L523.38 400.54" stroke="hsla(165.60000000000002, 81.1%, 81.6%, 0.5)" stroke-width="1.5"></path><path d="M513.23 546.52L660.09 488.99" stroke="hsla(165.60000000000002, 81.1%, 81.6%, 0.5)" stroke-width="1.5"></path><path d="M1098.64 200.55L1098.64 200.55" stroke="hsla(165.60000000000002, 81.1%, 81.6%, 0.5)" stroke-width="1.5"></path><path d="M1098.64 200.55L1129.96 359.58" stroke="hsla(165.60000000000002, 81.1%, 81.6%, 0.5)" stroke-width="1.5"></path><path d="M1098.64 200.55L1280.74 240.04" stroke="hsla(165.60000000000002, 81.1%, 81.6%, 0.5)" stroke-width="1.5"></path><path d="M1098.64 200.55L1244.52 344.56" stroke="hsla(165.60000000000002, 81.1%, 81.6%, 0.5)" stroke-width="1.5"></path><path d="M1098.64 200.55L1304.78 83.11" stroke="hsla(165.60000000000002, 81.1%, 81.6%, 0.5)" stroke-width="1.5"></path><path d="M1098.64 200.55L943.92 396.31" stroke="hsla(165.60000000000002, 81.1%, 81.6%, 0.5)" stroke-width="1.5"></path><path d="M1238.64 511.99L1238.64 511.99" stroke="hsla(165.60000000000002, 81.1%, 81.6%, 0.5)" stroke-width="1.5"></path><path d="M1238.64 511.99L1282.26 646.75" stroke="hsla(165.60000000000002, 81.1%, 81.6%, 0.5)" stroke-width="1.5"></path><path d="M1238.64 511.99L1244.52 344.56" stroke="hsla(165.60000000000002, 81.1%, 81.6%, 0.5)" stroke-width="1.5"></path><path d="M1238.64 511.99L1129.96 359.58" stroke="hsla(165.60000000000002, 81.1%, 81.6%, 0.5)" stroke-width="1.5"></path><path d="M1238.64 511.99L1135.94 687.52" stroke="hsla(165.60000000000002, 81.1%, 81.6%, 0.5)" stroke-width="1.5"></path><path d="M1444.68 350.89L1444.68 350.89" stroke="hsla(165.60000000000002, 81.1%, 81.6%, 0.5)" stroke-width="1.5"></path><path d="M1444.68 350.89L1391.8 212.35" stroke="hsla(165.60000000000002, 81.1%, 81.6%, 0.5)" stroke-width="1.5"></path><path d="M1444.68 350.89L1604.26 402.48" stroke="hsla(165.60000000000002, 81.1%, 81.6%, 0.5)" stroke-width="1.5"></path><path d="M1444.68 350.89L1584.37 223.5" stroke="hsla(165.60000000000002, 81.1%, 81.6%, 0.5)" stroke-width="1.5"></path><path d="M1444.68 350.89L1280.74 240.04" stroke="hsla(165.60000000000002, 81.1%, 81.6%, 0.5)" stroke-width="1.5"></path><path d="M1451.05 704.36L1451.05 704.36" stroke="hsla(165.60000000000002, 81.1%, 81.6%, 0.5)" stroke-width="1.5"></path><path d="M1451.05 704.36L1596.72 661.19" stroke="hsla(165.60000000000002, 81.1%, 81.6%, 0.5)" stroke-width="1.5"></path><path d="M1451.05 704.36L1282.26 646.75" stroke="hsla(165.60000000000002, 81.1%, 81.6%, 0.5)" stroke-width="1.5"></path><path d="M1589.62 74.54L1589.62 74.54" stroke="hsla(165.60000000000002, 81.1%, 81.6%, 0.5)" stroke-width="1.5"></path><path d="M1589.62 74.54L1584.37 223.5" stroke="hsla(165.60000000000002, 81.1%, 81.6%, 0.5)" stroke-width="1.5"></path><path d="M1589.62 74.54L1405.48 76.26" stroke="hsla(165.60000000000002, 81.1%, 81.6%, 0.5)" stroke-width="1.5"></path><path d="M1589.62 74.54L1391.8 212.35" stroke="hsla(165.60000000000002, 81.1%, 81.6%, 0.5)" stroke-width="1.5"></path><path d="M1604.26 402.48L1604.26 402.48" stroke="hsla(165.60000000000002, 81.1%, 81.6%, 0.5)" stroke-width="1.5"></path><path d="M1604.26 402.48L1580.91 539.09" stroke="hsla(165.60000000000002, 81.1%, 81.6%, 0.5)" stroke-width="1.5"></path><path d="M1604.26 402.48L1584.37 223.5" stroke="hsla(165.60000000000002, 81.1%, 81.6%, 0.5)" stroke-width="1.5"></path><path d="M1604.26 402.48L1596.72 661.19" stroke="hsla(165.60000000000002, 81.1%, 81.6%, 0.5)" stroke-width="1.5"></path><path d="M1604.26 402.48L1391.8 212.35" stroke="hsla(165.60000000000002, 81.1%, 81.6%, 0.5)" stroke-width="1.5"></path><path d="M1604.26 402.48L1589.62 74.54" stroke="hsla(165.60000000000002, 81.1%, 81.6%, 0.5)" stroke-width="1.5"></path><path d="M-63.81 525L-63.81 525" stroke="hsla(165.60000000000002, 81.1%, 81.6%, 0.5)" stroke-width="1.5"></path><path d="M-63.81 525L60.49 528.92" stroke="hsla(165.60000000000002, 81.1%, 81.6%, 0.5)" stroke-width="1.5"></path><path d="M-63.81 525L-65.42 680.6" stroke="hsla(165.60000000000002, 81.1%, 81.6%, 0.5)" stroke-width="1.5"></path><path d="M-63.81 525L260.1 488.04" stroke="hsla(165.60000000000002, 81.1%, 81.6%, 0.5)" stroke-width="1.5"></path><path d="M-63.81 525L340.27 638.93" stroke="hsla(165.60000000000002, 81.1%, 81.6%, 0.5)" stroke-width="1.5"></path><path d="M-63.81 525L411.31 524.2" stroke="hsla(165.60000000000002, 81.1%, 81.6%, 0.5)" stroke-width="1.5"></path><path d="M-63.81 525L513.23 546.52" stroke="hsla(165.60000000000002, 81.1%, 81.6%, 0.5)" stroke-width="1.5"></path><path d="M-65.42 680.6L-65.42 680.6" stroke="hsla(165.60000000000002, 81.1%, 81.6%, 0.5)" stroke-width="1.5"></path><path d="M-65.42 680.6L60.49 528.92" stroke="hsla(165.60000000000002, 81.1%, 81.6%, 0.5)" stroke-width="1.5"></path><path d="M60.49 528.92L60.49 528.92" stroke="hsla(165.60000000000002, 81.1%, 81.6%, 0.5)" stroke-width="1.5"></path><path d="M60.49 528.92L260.1 488.04" stroke="hsla(165.60000000000002, 81.1%, 81.6%, 0.5)" stroke-width="1.5"></path><path d="M60.49 528.92L340.27 638.93" stroke="hsla(165.60000000000002, 81.1%, 81.6%, 0.5)" stroke-width="1.5"></path><path d="M260.1 488.04L260.1 488.04" stroke="hsla(165.60000000000002, 81.1%, 81.6%, 0.5)" stroke-width="1.5"></path><path d="M260.1 488.04L411.31 524.2" stroke="hsla(165.60000000000002, 81.1%, 81.6%, 0.5)" stroke-width="1.5"></path><path d="M411.31 524.2L411.31 524.2" stroke="hsla(165.60000000000002, 81.1%, 81.6%, 0.5)" stroke-width="1.5"></path><path d="M411.31 524.2L340.27 638.93" stroke="hsla(165.60000000000002, 81.1%, 81.6%, 0.5)" stroke-width="1.5"></path><path d="M411.31 524.2L523.38 400.54" stroke="hsla(165.60000000000002, 81.1%, 81.6%, 0.5)" stroke-width="1.5"></path><path d="M340.27 638.93L340.27 638.93" stroke="hsla(165.60000000000002, 81.1%, 81.6%, 0.5)" stroke-width="1.5"></path><path d="M340.27 638.93L260.1 488.04" stroke="hsla(165.60000000000002, 81.1%, 81.6%, 0.5)" stroke-width="1.5"></path><path d="M340.27 638.93L513.23 546.52" stroke="hsla(165.60000000000002, 81.1%, 81.6%, 0.5)" stroke-width="1.5"></path><path d="M340.27 638.93L548.5 668.92" stroke="hsla(165.60000000000002, 81.1%, 81.6%, 0.5)" stroke-width="1.5"></path><path d="M523.38 400.54L523.38 400.54" stroke="hsla(165.60000000000002, 81.1%, 81.6%, 0.5)" stroke-width="1.5"></path><path d="M523.38 400.54L654.56 409.3" stroke="hsla(165.60000000000002, 81.1%, 81.6%, 0.5)" stroke-width="1.5"></path><path d="M523.38 400.54L660.09 488.99" stroke="hsla(165.60000000000002, 81.1%, 81.6%, 0.5)" stroke-width="1.5"></path><path d="M523.38 400.54L548.5 668.92" stroke="hsla(165.60000000000002, 81.1%, 81.6%, 0.5)" stroke-width="1.5"></path><path d="M523.38 400.54L260.1 488.04" stroke="hsla(165.60000000000002, 81.1%, 81.6%, 0.5)" stroke-width="1.5"></path><path d="M548.5 668.92L548.5 668.92" stroke="hsla(165.60000000000002, 81.1%, 81.6%, 0.5)" stroke-width="1.5"></path><path d="M548.5 668.92L644.22 682.6" stroke="hsla(165.60000000000002, 81.1%, 81.6%, 0.5)" stroke-width="1.5"></path><path d="M548.5 668.92L411.31 524.2" stroke="hsla(165.60000000000002, 81.1%, 81.6%, 0.5)" stroke-width="1.5"></path><path d="M654.56 409.3L654.56 409.3" stroke="hsla(165.60000000000002, 81.1%, 81.6%, 0.5)" stroke-width="1.5"></path><path d="M654.56 409.3L660.09 488.99" stroke="hsla(165.60000000000002, 81.1%, 81.6%, 0.5)" stroke-width="1.5"></path><path d="M654.56 409.3L813.09 370.75" stroke="hsla(165.60000000000002, 81.1%, 81.6%, 0.5)" stroke-width="1.5"></path><path d="M654.56 409.3L789.54 539.82" stroke="hsla(165.60000000000002, 81.1%, 81.6%, 0.5)" stroke-width="1.5"></path><path d="M654.56 409.3L513.23 546.52" stroke="hsla(165.60000000000002, 81.1%, 81.6%, 0.5)" stroke-width="1.5"></path><path d="M654.56 409.3L411.31 524.2" stroke="hsla(165.60000000000002, 81.1%, 81.6%, 0.5)" stroke-width="1.5"></path><path d="M660.09 488.99L660.09 488.99" stroke="hsla(165.60000000000002, 81.1%, 81.6%, 0.5)" stroke-width="1.5"></path><path d="M660.09 488.99L789.54 539.82" stroke="hsla(165.60000000000002, 81.1%, 81.6%, 0.5)" stroke-width="1.5"></path><path d="M644.22 682.6L644.22 682.6" stroke="hsla(165.60000000000002, 81.1%, 81.6%, 0.5)" stroke-width="1.5"></path><path d="M644.22 682.6L513.23 546.52" stroke="hsla(165.60000000000002, 81.1%, 81.6%, 0.5)" stroke-width="1.5"></path><path d="M644.22 682.6L660.09 488.99" stroke="hsla(165.60000000000002, 81.1%, 81.6%, 0.5)" stroke-width="1.5"></path><path d="M644.22 682.6L789.54 539.82" stroke="hsla(165.60000000000002, 81.1%, 81.6%, 0.5)" stroke-width="1.5"></path><path d="M644.22 682.6L857.77 675.46" stroke="hsla(165.60000000000002, 81.1%, 81.6%, 0.5)" stroke-width="1.5"></path><path d="M813.09 370.75L813.09 370.75" stroke="hsla(165.60000000000002, 81.1%, 81.6%, 0.5)" stroke-width="1.5"></path><path d="M813.09 370.75L943.92 396.31" stroke="hsla(165.60000000000002, 81.1%, 81.6%, 0.5)" stroke-width="1.5"></path><path d="M813.09 370.75L789.54 539.82" stroke="hsla(165.60000000000002, 81.1%, 81.6%, 0.5)" stroke-width="1.5"></path><path d="M813.09 370.75L660.09 488.99" stroke="hsla(165.60000000000002, 81.1%, 81.6%, 0.5)" stroke-width="1.5"></path><path d="M813.09 370.75L954.08 558.04" stroke="hsla(165.60000000000002, 81.1%, 81.6%, 0.5)" stroke-width="1.5"></path><path d="M789.54 539.82L789.54 539.82" stroke="hsla(165.60000000000002, 81.1%, 81.6%, 0.5)" stroke-width="1.5"></path><path d="M789.54 539.82L857.77 675.46" stroke="hsla(165.60000000000002, 81.1%, 81.6%, 0.5)" stroke-width="1.5"></path><path d="M789.54 539.82L954.08 558.04" stroke="hsla(165.60000000000002, 81.1%, 81.6%, 0.5)" stroke-width="1.5"></path><path d="M857.77 675.46L857.77 675.46" stroke="hsla(165.60000000000002, 81.1%, 81.6%, 0.5)" stroke-width="1.5"></path><path d="M857.77 675.46L975.18 702.9" stroke="hsla(165.60000000000002, 81.1%, 81.6%, 0.5)" stroke-width="1.5"></path><path d="M857.77 675.46L954.08 558.04" stroke="hsla(165.60000000000002, 81.1%, 81.6%, 0.5)" stroke-width="1.5"></path><path d="M943.92 396.31L943.92 396.31" stroke="hsla(165.60000000000002, 81.1%, 81.6%, 0.5)" stroke-width="1.5"></path><path d="M943.92 396.31L954.08 558.04" stroke="hsla(165.60000000000002, 81.1%, 81.6%, 0.5)" stroke-width="1.5"></path><path d="M943.92 396.31L1129.96 359.58" stroke="hsla(165.60000000000002, 81.1%, 81.6%, 0.5)" stroke-width="1.5"></path><path d="M943.92 396.31L789.54 539.82" stroke="hsla(165.60000000000002, 81.1%, 81.6%, 0.5)" stroke-width="1.5"></path><path d="M954.08 558.04L954.08 558.04" stroke="hsla(165.60000000000002, 81.1%, 81.6%, 0.5)" stroke-width="1.5"></path><path d="M954.08 558.04L975.18 702.9" stroke="hsla(165.60000000000002, 81.1%, 81.6%, 0.5)" stroke-width="1.5"></path><path d="M954.08 558.04L1135.94 687.52" stroke="hsla(165.60000000000002, 81.1%, 81.6%, 0.5)" stroke-width="1.5"></path><path d="M975.18 702.9L975.18 702.9" stroke="hsla(165.60000000000002, 81.1%, 81.6%, 0.5)" stroke-width="1.5"></path><path d="M1129.96 359.58L1129.96 359.58" stroke="hsla(165.60000000000002, 81.1%, 81.6%, 0.5)" stroke-width="1.5"></path><path d="M1129.96 359.58L1244.52 344.56" stroke="hsla(165.60000000000002, 81.1%, 81.6%, 0.5)" stroke-width="1.5"></path><path d="M1135.94 687.52L1135.94 687.52" stroke="hsla(165.60000000000002, 81.1%, 81.6%, 0.5)" stroke-width="1.5"></path><path d="M1135.94 687.52L1282.26 646.75" stroke="hsla(165.60000000000002, 81.1%, 81.6%, 0.5)" stroke-width="1.5"></path><path d="M1135.94 687.52L975.18 702.9" stroke="hsla(165.60000000000002, 81.1%, 81.6%, 0.5)" stroke-width="1.5"></path><path d="M1135.94 687.52L857.77 675.46" stroke="hsla(165.60000000000002, 81.1%, 81.6%, 0.5)" stroke-width="1.5"></path><path d="M1286.7 -52.2L1286.7 -52.2" stroke="hsla(165.60000000000002, 81.1%, 81.6%, 0.5)" stroke-width="1.5"></path><path d="M1286.7 -52.2L1304.78 83.11" stroke="hsla(165.60000000000002, 81.1%, 81.6%, 0.5)" stroke-width="1.5"></path><path d="M1286.7 -52.2L1405.48 76.26" stroke="hsla(165.60000000000002, 81.1%, 81.6%, 0.5)" stroke-width="1.5"></path><path d="M1286.7 -52.2L1391.8 212.35" stroke="hsla(165.60000000000002, 81.1%, 81.6%, 0.5)" stroke-width="1.5"></path><path d="M1304.78 83.11L1304.78 83.11" stroke="hsla(165.60000000000002, 81.1%, 81.6%, 0.5)" stroke-width="1.5"></path><path d="M1304.78 83.11L1405.48 76.26" stroke="hsla(165.60000000000002, 81.1%, 81.6%, 0.5)" stroke-width="1.5"></path><path d="M1304.78 83.11L1391.8 212.35" stroke="hsla(165.60000000000002, 81.1%, 81.6%, 0.5)" stroke-width="1.5"></path><path d="M1304.78 83.11L1280.74 240.04" stroke="hsla(165.60000000000002, 81.1%, 81.6%, 0.5)" stroke-width="1.5"></path><path d="M1304.78 83.11L1244.52 344.56" stroke="hsla(165.60000000000002, 81.1%, 81.6%, 0.5)" stroke-width="1.5"></path><path d="M1280.74 240.04L1280.74 240.04" stroke="hsla(165.60000000000002, 81.1%, 81.6%, 0.5)" stroke-width="1.5"></path><path d="M1280.74 240.04L1244.52 344.56" stroke="hsla(165.60000000000002, 81.1%, 81.6%, 0.5)" stroke-width="1.5"></path><path d="M1280.74 240.04L1391.8 212.35" stroke="hsla(165.60000000000002, 81.1%, 81.6%, 0.5)" stroke-width="1.5"></path><path d="M1244.52 344.56L1244.52 344.56" stroke="hsla(165.60000000000002, 81.1%, 81.6%, 0.5)" stroke-width="1.5"></path><path d="M1244.52 344.56L1391.8 212.35" stroke="hsla(165.60000000000002, 81.1%, 81.6%, 0.5)" stroke-width="1.5"></path><path d="M1244.52 344.56L1444.68 350.89" stroke="hsla(165.60000000000002, 81.1%, 81.6%, 0.5)" stroke-width="1.5"></path><path d="M1282.26 646.75L1282.26 646.75" stroke="hsla(165.60000000000002, 81.1%, 81.6%, 0.5)" stroke-width="1.5"></path><path d="M1405.48 76.26L1405.48 76.26" stroke="hsla(165.60000000000002, 81.1%, 81.6%, 0.5)" stroke-width="1.5"></path><path d="M1405.48 76.26L1391.8 212.35" stroke="hsla(165.60000000000002, 81.1%, 81.6%, 0.5)" stroke-width="1.5"></path><path d="M1391.8 212.35L1391.8 212.35" stroke="hsla(165.60000000000002, 81.1%, 81.6%, 0.5)" stroke-width="1.5"></path><path d="M1584.37 223.5L1584.37 223.5" stroke="hsla(165.60000000000002, 81.1%, 81.6%, 0.5)" stroke-width="1.5"></path><path d="M1580.91 539.09L1580.91 539.09" stroke="hsla(165.60000000000002, 81.1%, 81.6%, 0.5)" stroke-width="1.5"></path><path d="M1580.91 539.09L1596.72 661.19" stroke="hsla(165.60000000000002, 81.1%, 81.6%, 0.5)" stroke-width="1.5"></path><path d="M1596.72 661.19L1596.72 661.19" stroke="hsla(165.60000000000002, 81.1%, 81.6%, 0.5)" stroke-width="1.5"></path><circle r="25" cx="513.23" cy="546.52" fill="url(&quot;#SvgjsRadialGradient1660&quot;)"></circle><circle r="25" cx="1098.64" cy="200.55" fill="url(&quot;#SvgjsRadialGradient1660&quot;)"></circle><circle r="25" cx="1238.64" cy="511.99" fill="url(&quot;#SvgjsRadialGradient1660&quot;)"></circle><circle r="25" cx="1444.68" cy="350.89" fill="url(&quot;#SvgjsRadialGradient1660&quot;)"></circle><circle r="25" cx="1451.05" cy="704.36" fill="url(&quot;#SvgjsRadialGradient1660&quot;)"></circle><circle r="25" cx="1589.62" cy="74.54" fill="url(&quot;#SvgjsRadialGradient1660&quot;)"></circle><circle r="25" cx="1604.26" cy="402.48" fill="url(&quot;#SvgjsRadialGradient1660&quot;)"></circle><circle r="5" cx="-63.81" cy="525" fill="rgba(212, 251, 241, 0.75)"></circle><circle r="5" cx="-65.42" cy="680.6" fill="rgba(212, 251, 241, 0.75)"></circle><circle r="5" cx="60.49" cy="528.92" fill="rgba(212, 251, 241, 0.75)"></circle><circle r="5" cx="260.1" cy="488.04" fill="rgba(212, 251, 241, 0.75)"></circle><circle r="5" cx="411.31" cy="524.2" fill="rgba(212, 251, 241, 0.75)"></circle><circle r="5" cx="340.27" cy="638.93" fill="rgba(212, 251, 241, 0.75)"></circle><circle r="5" cx="523.38" cy="400.54" fill="rgba(212, 251, 241, 0.75)"></circle><circle r="5" cx="548.5" cy="668.92" fill="rgba(212, 251, 241, 0.75)"></circle><circle r="5" cx="654.56" cy="409.3" fill="rgba(212, 251, 241, 0.75)"></circle><circle r="5" cx="660.09" cy="488.99" fill="rgba(212, 251, 241, 0.75)"></circle><circle r="5" cx="644.22" cy="682.6" fill="rgba(212, 251, 241, 0.75)"></circle><circle r="5" cx="813.09" cy="370.75" fill="rgba(212, 251, 241, 0.75)"></circle><circle r="5" cx="789.54" cy="539.82" fill="rgba(212, 251, 241, 0.75)"></circle><circle r="5" cx="857.77" cy="675.46" fill="rgba(212, 251, 241, 0.75)"></circle><circle r="5" cx="943.92" cy="396.31" fill="rgba(212, 251, 241, 0.75)"></circle><circle r="5" cx="954.08" cy="558.04" fill="rgba(212, 251, 241, 0.75)"></circle><circle r="5" cx="975.18" cy="702.9" fill="rgba(212, 251, 241, 0.75)"></circle><circle r="5" cx="1129.96" cy="359.58" fill="rgba(212, 251, 241, 0.75)"></circle><circle r="5" cx="1135.94" cy="687.52" fill="rgba(212, 251, 241, 0.75)"></circle><circle r="5" cx="1286.7" cy="-52.2" fill="rgba(212, 251, 241, 0.75)"></circle><circle r="5" cx="1304.78" cy="83.11" fill="rgba(212, 251, 241, 0.75)"></circle><circle r="5" cx="1280.74" cy="240.04" fill="rgba(212, 251, 241, 0.75)"></circle><circle r="5" cx="1244.52" cy="344.56" fill="rgba(212, 251, 241, 0.75)"></circle><circle r="5" cx="1282.26" cy="646.75" fill="rgba(212, 251, 241, 0.75)"></circle><circle r="5" cx="1405.48" cy="76.26" fill="rgba(212, 251, 241, 0.75)"></circle><circle r="5" cx="1391.8" cy="212.35" fill="rgba(212, 251, 241, 0.75)"></circle><circle r="5" cx="1584.37" cy="223.5" fill="rgba(212, 251, 241, 0.75)"></circle><circle r="5" cx="1580.91" cy="539.09" fill="rgba(212, 251, 241, 0.75)"></circle><circle r="5" cx="1596.72" cy="661.19" fill="rgba(212, 251, 241, 0.75)"></circle></g><defs><mask id="SvgjsMask1659"><rect width="1440" height="560" fill="#ffffff"></rect></mask><radialGradient id="SvgjsRadialGradient1660"><stop stop-color="#ffffff" offset="0.1"></stop><stop stop-color="rgba(83, 237, 200, 0.5)" offset="0.2"></stop><stop stop-color="rgba(83, 237, 200, 0)" offset="1"></stop></radialGradient></defs></svg>